<svg viewBox="0 0 120 160" width="140" height="187" xmlns="http://www.w3.org/2000/svg"><rect x="22" y="34" width="76" height="30" rx="15" fill="#C44A1E"/><path d="M 22 64 C 22 70 24 74 26 76" stroke="#C44A1E" stroke-width="6" fill="none" stroke-linecap="round"/><path d="M 98 64 C 98 70 96 74 94 76" stroke="#C44A1E" stroke-width="6" fill="none" stroke-linecap="round"/><path d="M 50 108 C 50 120 52 128 54 130 L 66 130 C 68 128 70 120 70 108 Z" fill="#FDDBB4"/><ellipse cx="24" cy="72" rx="7" ry="9" fill="#FDDBB4"/><ellipse cx="96" cy="72" rx="7" ry="9" fill="#FDDBB4"/><ellipse cx="24" cy="72" rx="4" ry="6" fill="#cfb494" opacity="0.2"/><ellipse cx="96" cy="72" rx="4" ry="6" fill="#cfb494" opacity="0.2"/><ellipse cx="60" cy="72" rx="36" ry="40" fill="#FDDBB4"/><path d="M 38 57 C 41 54 48 54 52 57" stroke="#b4441c" stroke-width="2.8" fill="none" stroke-linecap="round"/><path d="M 68 57 C 72 54 79 54 82 57" stroke="#b4441c" stroke-width="2.8" fill="none" stroke-linecap="round"/><ellipse cx="47" cy="65" rx="9" ry="7" fill="white"/><ellipse cx="73" cy="65" rx="9" ry="7" fill="white"/><circle cx="47" cy="65" r="5.5" fill="#3E2010"/><circle cx="73" cy="65" r="5.5" fill="#3E2010"/><circle cx="47" cy="65" r="3" fill="#111111"/><circle cx="73" cy="65" r="3" fill="#111111"/><circle cx="49" cy="63" r="1.5" fill="white"/><circle cx="75" cy="63" r="1.5" fill="white"/><path d="M 38 65 C 40 58 54 58 56 65" stroke="#2a1a0a" stroke-width="1.5" fill="none"/><path d="M 64 65 C 66 58 80 58 82 65" stroke="#2a1a0a" stroke-width="1.5" fill="none"/><path d="M 57 67 C 52 71 40 70 36 67 L 36 61 C 40 55 53 57 57 63 Z" fill="none" stroke="#8B1A1A" stroke-width="1.5" stroke-linejoin="round"/><path d="M 63 67 C 68 71 80 70 84 67 L 84 61 C 80 55 67 57 63 63 Z" fill="none" stroke="#8B1A1A" stroke-width="1.5" stroke-linejoin="round"/><line x1="57" y1="65" x2="63" y2="65" stroke="#8B1A1A" stroke-width="1.5"/><line x1="36" y1="64" x2="24" y2="69" stroke="#8B1A1A" stroke-width="1.5" stroke-linecap="round"/><line x1="84" y1="64" x2="96" y2="69" stroke="#8B1A1A" stroke-width="1.5" stroke-linecap="round"/><path d="M 56 72 C 55 77 55 81 58 82 C 59 82.5 61 82.5 62 82 C 65 81 65 77 64 72" fill="none" stroke="#c5ab8c" stroke-width="1.3" stroke-linecap="round"/><path d="M 49 85 C 53 92 67 92 71 85" fill="none" stroke="#ac957a" stroke-width="2" stroke-linecap="round"/><path d="M 27 128 C 16 132 12 145 11 160 L 109 160 C 108 145 104 132 93 128 C 82 121 72 118 60 118 C 48 118 38 121 27 128 Z" fill="#B71C1C"/><path d="M 50 118 L 60 134 L 70 118" fill="none" stroke="rgba(0,0,0,0.18)" stroke-width="1.5"/><path d="M 50 118 L 60 130 L 70 118" fill="#961717"/></svg>