<svg viewBox="0 0 120 160" width="140" height="187" xmlns="http://www.w3.org/2000/svg"><path d="M 23 70 C 20 55 32 32 60 32 C 88 32 100 55 97 70 L 97 160 L 23 160 Z" fill="#3D2B1F"/><ellipse cx="60" cy="45" rx="40" ry="26" fill="#3D2B1F"/><path d="M 50 108 C 50 120 52 128 54 130 L 66 130 C 68 128 70 120 70 108 Z" fill="#F0C090"/><ellipse cx="24" cy="72" rx="7" ry="9" fill="#F0C090"/><ellipse cx="96" cy="72" rx="7" ry="9" fill="#F0C090"/><ellipse cx="24" cy="72" rx="4" ry="6" fill="#c59d76" opacity="0.2"/><ellipse cx="96" cy="72" rx="4" ry="6" fill="#c59d76" opacity="0.2"/><ellipse cx="60" cy="72" rx="36" ry="40" fill="#F0C090"/><path d="M 37 56 C 41 52 50 52 54 56" stroke="#38281d" stroke-width="1.8" fill="none" stroke-linecap="round"/><path d="M 66 56 C 70 52 79 52 83 56" stroke="#38281d" stroke-width="1.8" fill="none" stroke-linecap="round"/><ellipse cx="47" cy="65" rx="9" ry="7" fill="white"/><ellipse cx="73" cy="65" rx="9" ry="7" fill="white"/><circle cx="47" cy="65" r="5.5" fill="#3E2010"/><circle cx="73" cy="65" r="5.5" fill="#3E2010"/><circle cx="47" cy="65" r="3" fill="#111111"/><circle cx="73" cy="65" r="3" fill="#111111"/><circle cx="49" cy="63" r="1.5" fill="white"/><circle cx="75" cy="63" r="1.5" fill="white"/><path d="M 38 65 C 40 58 54 58 56 65" stroke="#2a1a0a" stroke-width="2.2" fill="none"/><path d="M 64 65 C 66 58 80 58 82 65" stroke="#2a1a0a" stroke-width="2.2" fill="none"/><line x1="38" y1="64" x2="35" y2="61" stroke="#2a1a0a" stroke-width="1.5" stroke-linecap="round"/><line x1="56" y1="63" x2="59" y2="60" stroke="#2a1a0a" stroke-width="1.5" stroke-linecap="round"/><line x1="64" y1="63" x2="61" y2="60" stroke="#2a1a0a" stroke-width="1.5" stroke-linecap="round"/><line x1="82" y1="64" x2="85" y2="61" stroke="#2a1a0a" stroke-width="1.5" stroke-linecap="round"/><path d="M 56 72 C 55 77 55 81 58 82 C 59 82.5 61 82.5 62 82 C 65 81 65 77 64 72" fill="none" stroke="#bb9670" stroke-width="1.3" stroke-linecap="round"/><path d="M 48 85 C 52 82 57 83 60 84 C 63 83 68 82 72 85 C 70 91 65 93 60 93 C 55 93 50 91 48 85 Z" fill="#C85070"/><path d="M 48 85 C 52 82 57 83 60 84 C 63 83 68 82 72 85" fill="none" stroke="rgba(0,0,0,0.18)" stroke-width="0.8"/><path d="M 49 86 C 56 88 64 88 71 86" fill="none" stroke="rgba(0,0,0,0.12)" stroke-width="0.8"/><path d="M 27 128 C 16 132 12 145 11 160 L 109 160 C 108 145 104 132 93 128 C 82 121 72 118 60 118 C 48 118 38 121 27 128 Z" fill="#4A148C"/><path d="M 50 118 L 60 134 L 70 118" fill="none" stroke="rgba(0,0,0,0.18)" stroke-width="1.5"/><path d="M 50 118 L 60 130 L 70 118" fill="#3d1073"/></svg>